<svg width="23" height="20" viewBox="0 0 23 20" fill="none" xmlns="http://www.w3.org/2000/svg">
<path d="M20.3807 2.57566C19.8676 2.07613 19.2583 1.67987 18.5878 1.40951C17.9172 1.13915 17.1985 1 16.4727 1C15.7468 1 15.0281 1.13915 14.3576 1.40951C13.687 1.67987 13.0778 2.07613 12.5646 2.57566L11.4997 3.61187L10.4348 2.57566C9.39834 1.56712 7.99258 1.00052 6.52679 1.00052C5.06099 1.00052 3.65523 1.56712 2.61876 2.57566C1.58229 3.5842 1 4.95207 1 6.37837C1 7.80466 1.58229 9.17254 2.61876 10.1811L3.68367 11.2173L11.4997 18.8227L19.3158 11.2173L20.3807 10.1811C20.8941 9.68178 21.3013 9.08896 21.5791 8.43648C21.857 7.784 22 7.08464 22 6.37837C22 5.67209 21.857 4.97274 21.5791 4.32026C21.3013 3.66777 20.8941 3.07495 20.3807 2.57566V2.57566Z" stroke="#4B4B4B" stroke-width="2" stroke-linecap="round" stroke-linejoin="round"/>
</svg>
