<svg width="12" height="10" viewBox="0 0 12 10" fill="none" xmlns="http://www.w3.org/2000/svg">
<path d="M10.6518 1.28783C10.383 1.03806 10.0639 0.839933 9.71265 0.704755C9.36141 0.569577 8.98493 0.5 8.60473 0.5C8.22453 0.5 7.84806 0.569577 7.49682 0.704755C7.14558 0.839933 6.82645 1.03806 6.55767 1.28783L5.99986 1.80594L5.44205 1.28783C4.89913 0.783558 4.16278 0.500261 3.39498 0.500261C2.62719 0.500261 1.89084 0.783558 1.34792 1.28783C0.805006 1.7921 0.5 2.47604 0.5 3.18918C0.5 3.90233 0.805006 4.58627 1.34792 5.09054L1.90573 5.60865L5.99986 9.41136L10.094 5.60865L10.6518 5.09054C10.9207 4.84089 11.134 4.54448 11.2796 4.21824C11.4251 3.892 11.5 3.54232 11.5 3.18918C11.5 2.83605 11.4251 2.48637 11.2796 2.16013C11.134 1.83389 10.9207 1.53748 10.6518 1.28783Z" fill="#FF7658" stroke="#FF7658" stroke-linecap="round" stroke-linejoin="round"/>
</svg>
