<svg width="16" height="11" viewBox="0 0 16 11" fill="none" xmlns="http://www.w3.org/2000/svg">
<path d="M1.24939 6.9824C2.67716 8.45659 5.16715 10.5 8.00005 10.5C10.8329 10.5 13.3227 8.45659 14.7505 6.9824L14.7511 6.98171C15.1275 6.59308 15.316 6.39853 15.4358 6.01688C15.5214 5.74451 15.5214 5.2555 15.4358 4.98314C15.316 4.60147 15.1275 4.4069 14.7511 4.01822L14.7505 4.0176C13.3227 2.54341 10.8329 0.5 8.00005 0.5C5.16715 0.5 2.67716 2.54341 1.24939 4.0176C0.872546 4.40669 0.684107 4.60126 0.564161 4.98314C0.478613 5.2555 0.478613 5.74451 0.564161 6.01688C0.684102 6.39874 0.872526 6.59329 1.24933 6.98235L1.24939 6.9824Z" stroke="#414141" stroke-linecap="round" stroke-linejoin="round"/>
</svg>
