<svg width="62" height="16" viewBox="0 0 62 16" fill="none" xmlns="http://www.w3.org/2000/svg">
<g filter="url(#filter0_d_331_1834)">
<g filter="url(#filter1_d_331_1834)">
<path d="M4.97275 13.1052C3.66566 13.1052 2.57202 12.8154 1.69184 12.2358C0.811663 11.6561 0.247715 10.8367 0 9.77755L2.4429 9.45347C2.62209 9.97515 2.92779 10.3756 3.35997 10.6549C3.79215 10.9289 4.32448 11.0659 4.95694 11.0659C5.58941 11.0659 6.0822 10.9447 6.43533 10.7023C6.79373 10.4547 6.97029 10.1122 6.96502 9.67479C6.95975 9.4324 6.88069 9.22162 6.72784 9.04245C6.58027 8.85802 6.37999 8.71047 6.127 8.59982C5.87402 8.48389 5.5815 8.38113 5.24946 8.29155C4.92268 8.1967 4.57746 8.10448 4.2138 8.0149C3.8554 7.92005 3.497 7.8173 3.13861 7.70664C2.78021 7.59598 2.43762 7.45107 2.11085 7.2719C1.78408 7.09274 1.4942 6.88459 1.24121 6.64747C0.988226 6.41034 0.787946 6.10734 0.640371 5.73848C0.492795 5.36962 0.419008 4.95069 0.419008 4.48171C0.419008 3.45942 0.814298 2.63211 1.60488 1.99977C2.39546 1.36743 3.42058 1.05126 4.68024 1.05126C5.96625 1.05126 7.01772 1.32264 7.83466 1.8654C8.65159 2.40289 9.17074 3.18804 9.3921 4.22087L7.04408 4.54494C6.66987 3.59643 5.90828 3.12218 4.7593 3.12218C4.19008 3.12218 3.73945 3.24074 3.4074 3.47787C3.08063 3.70972 2.91724 4.02853 2.91724 4.43428C2.91724 4.69775 2.99103 4.92698 3.13861 5.12195C3.29145 5.31165 3.49437 5.46447 3.74735 5.5804C4.00561 5.69632 4.30076 5.79908 4.6328 5.88866C4.96485 5.97824 5.3127 6.06519 5.67637 6.1495C6.04531 6.23381 6.41161 6.32866 6.77528 6.43405C7.13895 6.53417 7.4868 6.66855 7.81885 6.83717C8.15089 7.00579 8.44341 7.20603 8.69639 7.43789C8.95465 7.66448 9.15756 7.96221 9.30514 8.33107C9.45798 8.69994 9.53441 9.1215 9.53441 9.59575C9.53441 10.6549 9.11803 11.5059 8.28529 12.1488C7.45781 12.7864 6.35364 13.1052 4.97275 13.1052Z" fill="white"/>
<path d="M22.5648 12.9471H19.5526L16.0108 8.48125V12.9471H13.5442V0.679765H16.0108V7.86472L19.3787 3.69128H22.3671L18.517 8.14137L22.5648 12.9471Z" fill="white"/>
<path d="M27.2466 2.48984C26.8355 2.48984 26.4982 2.37918 26.2346 2.15786C25.9711 1.93127 25.8393 1.62564 25.8393 1.24097C25.8393 0.851023 25.9685 0.548027 26.2267 0.331978C26.4903 0.110659 26.8302 0 27.2466 0C27.6471 0 27.9818 0.110659 28.2506 0.331978C28.5194 0.548027 28.6538 0.851023 28.6538 1.24097C28.6538 1.62037 28.5168 1.92337 28.2427 2.14995C27.9739 2.37654 27.6419 2.48984 27.2466 2.48984ZM26.0133 12.9471V3.69128H28.4562V12.9471H26.0133Z" fill="white"/>
<path d="M32.9957 15.9429V3.69128H35.4544V5.19309C35.6652 4.69775 36.0342 4.29464 36.5612 3.98374C37.0935 3.66757 37.7128 3.50948 38.4191 3.50948C38.9619 3.50948 39.4732 3.60697 39.9528 3.80194C40.4377 3.99164 40.8725 4.27356 41.2573 4.64769C41.642 5.02183 41.9477 5.52243 42.1743 6.1495C42.401 6.77657 42.5143 7.49322 42.5143 8.29945C42.5143 8.9476 42.4379 9.54042 42.285 10.0779C42.1374 10.6101 41.9345 11.0607 41.6763 11.4295C41.418 11.7984 41.1123 12.1093 40.7592 12.3622C40.4113 12.6152 40.0398 12.7996 39.6445 12.9155C39.2492 13.0315 38.8354 13.0894 38.4033 13.0894C37.7023 13.0894 37.0883 12.9287 36.5612 12.6073C36.0342 12.2858 35.6652 11.8748 35.4544 11.3742V15.9429H32.9957ZM37.7076 11.0659C38.4138 11.0659 38.9804 10.8209 39.4073 10.3308C39.8395 9.83551 40.0556 9.15838 40.0556 8.29945C40.0556 7.44053 39.8421 6.7634 39.4152 6.26806C38.9883 5.76746 38.4243 5.51716 37.7234 5.51716C37.0224 5.51716 36.4558 5.76746 36.0236 6.26806C35.5914 6.7634 35.3753 7.44053 35.3753 8.29945C35.3753 9.15838 35.5888 9.83551 36.0157 10.3308C36.4479 10.8209 37.0118 11.0659 37.7076 11.0659Z" fill="white"/>
</g>
<g filter="url(#filter2_d_331_1834)">
<path d="M54.6861 2.03084C55.0567 1.68495 55.6576 1.68495 56.0282 2.03084L61.7221 7.34513C62.0927 7.69102 62.0927 8.25183 61.7221 8.59772L56.0282 13.912C55.6576 14.2579 55.0567 14.2579 54.6861 13.912C54.3155 13.5661 54.3155 13.0053 54.6861 12.6594L59.709 7.97142L54.6861 3.28343C54.3155 2.93754 54.3155 2.37674 54.6861 2.03084ZM48.9922 2.03084C49.3628 1.68495 49.9637 1.68495 50.3343 2.03084L56.0282 7.34513C56.2062 7.51123 56.3061 7.73652 56.3061 7.97142C56.3061 8.20633 56.2062 8.43161 56.0282 8.59772L50.3343 13.912C49.9637 14.2579 49.3628 14.2579 48.9922 13.912C48.6216 13.5661 48.6216 13.0053 48.9922 12.6594L54.0151 7.97142L48.9922 3.28343C48.6216 2.93754 48.6216 2.37674 48.9922 2.03084Z" fill="white"/>
</g>
</g>
<defs>
<filter id="filter0_d_331_1834" x="-4" y="0" width="70" height="23.9429" filterUnits="userSpaceOnUse" color-interpolation-filters="sRGB">
<feFlood flood-opacity="0" result="BackgroundImageFix"/>
<feColorMatrix in="SourceAlpha" type="matrix" values="0 0 0 0 0 0 0 0 0 0 0 0 0 0 0 0 0 0 127 0" result="hardAlpha"/>
<feOffset dy="4"/>
<feGaussianBlur stdDeviation="2"/>
<feComposite in2="hardAlpha" operator="out"/>
<feColorMatrix type="matrix" values="0 0 0 0 0 0 0 0 0 0 0 0 0 0 0 0 0 0 0.15 0"/>
<feBlend mode="normal" in2="BackgroundImageFix" result="effect1_dropShadow_331_1834"/>
<feBlend mode="normal" in="SourceGraphic" in2="effect1_dropShadow_331_1834" result="shape"/>
</filter>
<filter id="filter1_d_331_1834" x="-9" y="-9" width="60.5143" height="33.9429" filterUnits="userSpaceOnUse" color-interpolation-filters="sRGB">
<feFlood flood-opacity="0" result="BackgroundImageFix"/>
<feColorMatrix in="SourceAlpha" type="matrix" values="0 0 0 0 0 0 0 0 0 0 0 0 0 0 0 0 0 0 127 0" result="hardAlpha"/>
<feOffset/>
<feGaussianBlur stdDeviation="4.5"/>
<feComposite in2="hardAlpha" operator="out"/>
<feColorMatrix type="matrix" values="0 0 0 0 0 0 0 0 0 0 0 0 0 0 0 0 0 0 0.54 0"/>
<feBlend mode="normal" in2="BackgroundImageFix" result="effect1_dropShadow_331_1834"/>
<feBlend mode="normal" in="SourceGraphic" in2="effect1_dropShadow_331_1834" result="shape"/>
</filter>
<filter id="filter2_d_331_1834" x="39.7143" y="-7.22858" width="31.2857" height="30.4" filterUnits="userSpaceOnUse" color-interpolation-filters="sRGB">
<feFlood flood-opacity="0" result="BackgroundImageFix"/>
<feColorMatrix in="SourceAlpha" type="matrix" values="0 0 0 0 0 0 0 0 0 0 0 0 0 0 0 0 0 0 127 0" result="hardAlpha"/>
<feOffset/>
<feGaussianBlur stdDeviation="4.5"/>
<feComposite in2="hardAlpha" operator="out"/>
<feColorMatrix type="matrix" values="0 0 0 0 0 0 0 0 0 0 0 0 0 0 0 0 0 0 0.54 0"/>
<feBlend mode="normal" in2="BackgroundImageFix" result="effect1_dropShadow_331_1834"/>
<feBlend mode="normal" in="SourceGraphic" in2="effect1_dropShadow_331_1834" result="shape"/>
</filter>
</defs>
</svg>
