<svg width="18" height="18" viewBox="0 0 18 18" fill="none" xmlns="http://www.w3.org/2000/svg">
<path d="M3.00004 3L15 15M12.375 12.567C11.3606 13.1135 10.214 13.5 9.00004 13.5C6.35205 13.5 4.0248 11.6609 2.69023 10.3342C2.33795 9.98394 2.16184 9.80885 2.04972 9.46513C1.96977 9.22001 1.96974 8.77979 2.04972 8.53467C2.16187 8.19096 2.33835 8.01554 2.69132 7.6647C3.36399 6.99611 4.28863 6.19765 5.37927 5.57002M14.625 10.9752C14.8748 10.7555 15.1036 10.5394 15.3089 10.3353C15.6619 9.98446 15.8383 9.80902 15.9504 9.46532C16.0304 9.2202 16.0307 8.78002 15.9508 8.53489C15.8386 8.19117 15.6624 8.01605 15.3101 7.66583C13.9755 6.33906 11.648 4.5 9.00004 4.5C8.74692 4.5 8.49672 4.5168 8.25004 4.54836M9.99222 10.125C9.7278 10.3583 9.38046 10.5 9.00004 10.5C8.17161 10.5 7.50004 9.82838 7.50004 8.99995C7.50004 8.59533 7.66025 8.22813 7.9207 7.95831" stroke="#4B4B4B" stroke-linecap="round" stroke-linejoin="round"/>
</svg>
