<svg width="16" height="15" viewBox="0 0 16 15" fill="none" xmlns="http://www.w3.org/2000/svg">
<path d="M14.1511 0.897778C13.9733 0.373334 13.4756 0 12.8889 0H3.11111C2.52444 0 2.03556 0.373334 1.84889 0.897778L0 6.22222V13.3333C0 13.8222 0.4 14.2222 0.888889 14.2222H1.77778C2.26667 14.2222 2.66667 13.8222 2.66667 13.3333V12.4444H13.3333V13.3333C13.3333 13.8222 13.7333 14.2222 14.2222 14.2222H15.1111C15.6 14.2222 16 13.8222 16 13.3333V6.22222L14.1511 0.897778ZM3.42222 1.77778H12.5689L13.5289 4.54222H2.46222L3.42222 1.77778ZM14.2222 10.6667H1.77778V6.22222H14.2222V10.6667Z" fill="black"/>
<path fill-rule="evenodd" clip-rule="evenodd" d="M13.8196 1.01014C13.6894 0.625846 13.3236 0.35 12.8889 0.35H3.11111C2.68055 0.35 2.31897 0.622317 2.17904 1.01396L0.35 6.28126V13.3333C0.35 13.6289 0.5933 13.8722 0.888889 13.8722H1.77778C2.07337 13.8722 2.31667 13.6289 2.31667 13.3333V12.4444C2.31667 12.2511 2.47337 12.0944 2.66667 12.0944H13.3333C13.5266 12.0944 13.6833 12.2511 13.6833 12.4444V13.3333C13.6833 13.6289 13.9266 13.8722 14.2222 13.8722H15.1111C15.4067 13.8722 15.65 13.6289 15.65 13.3333V6.28126L13.8196 1.01014ZM16 6.22222V13.3333C16 13.8222 15.6 14.2222 15.1111 14.2222H14.2222C13.7333 14.2222 13.3333 13.8222 13.3333 13.3333V12.4444H2.66667V13.3333C2.66667 13.8222 2.26667 14.2222 1.77778 14.2222H0.888889C0.4 14.2222 0 13.8222 0 13.3333V6.22222L1.84889 0.897778C2.03556 0.373334 2.52444 0 3.11111 0H12.8889C13.4756 0 13.9733 0.373334 14.1511 0.897778L16 6.22222ZM3.09159 1.66296C3.14048 1.52216 3.27318 1.42778 3.42222 1.42778H12.5689C12.7179 1.42778 12.8506 1.52216 12.8995 1.66296L13.8595 4.4274C13.8967 4.53441 13.8798 4.65279 13.8141 4.74509C13.7484 4.8374 13.6422 4.89222 13.5289 4.89222H2.46222C2.34895 4.89222 2.24267 4.8374 2.17702 4.74509C2.11136 4.65279 2.09443 4.53441 2.13159 4.4274L3.09159 1.66296ZM14.5722 10.6667C14.5722 10.86 14.4155 11.0167 14.2222 11.0167H1.77778C1.58448 11.0167 1.42778 10.86 1.42778 10.6667V6.22222C1.42778 6.02892 1.58448 5.87222 1.77778 5.87222H14.2222C14.4155 5.87222 14.5722 6.02892 14.5722 6.22222V10.6667ZM3.42222 1.77778H12.5689L13.5289 4.54222H2.46222L3.42222 1.77778ZM14.2222 10.6667V6.22222H1.77778V10.6667H14.2222Z" fill="white"/>
<path d="M3.99999 9.77775C4.73637 9.77775 5.33332 9.1808 5.33332 8.44442C5.33332 7.70804 4.73637 7.11108 3.99999 7.11108C3.26361 7.11108 2.66666 7.70804 2.66666 8.44442C2.66666 9.1808 3.26361 9.77775 3.99999 9.77775Z" fill="black"/>
<path fill-rule="evenodd" clip-rule="evenodd" d="M3.99999 9.42775C4.54307 9.42775 4.98332 8.9875 4.98332 8.44442C4.98332 7.90134 4.54307 7.46108 3.99999 7.46108C3.45691 7.46108 3.01666 7.90134 3.01666 8.44442C3.01666 8.9875 3.45691 9.42775 3.99999 9.42775ZM5.33332 8.44442C5.33332 9.1808 4.73637 9.77775 3.99999 9.77775C3.26361 9.77775 2.66666 9.1808 2.66666 8.44442C2.66666 7.70804 3.26361 7.11108 3.99999 7.11108C4.73637 7.11108 5.33332 7.70804 5.33332 8.44442Z" fill="white"/>
<path d="M12 9.77775C12.7364 9.77775 13.3333 9.1808 13.3333 8.44442C13.3333 7.70804 12.7364 7.11108 12 7.11108C11.2636 7.11108 10.6667 7.70804 10.6667 8.44442C10.6667 9.1808 11.2636 9.77775 12 9.77775Z" fill="black"/>
<path fill-rule="evenodd" clip-rule="evenodd" d="M12 9.42775C12.5431 9.42775 12.9833 8.9875 12.9833 8.44442C12.9833 7.90134 12.5431 7.46108 12 7.46108C11.4569 7.46108 11.0167 7.90134 11.0167 8.44442C11.0167 8.9875 11.4569 9.42775 12 9.42775ZM13.3333 8.44442C13.3333 9.1808 12.7364 9.77775 12 9.77775C11.2636 9.77775 10.6667 9.1808 10.6667 8.44442C10.6667 7.70804 11.2636 7.11108 12 7.11108C12.7364 7.11108 13.3333 7.70804 13.3333 8.44442Z" fill="white"/>
</svg>
