<svg width="148" height="67" viewBox="0 0 148 67" fill="none" xmlns="http://www.w3.org/2000/svg">
<path d="M0 37.0238V1.36314H21.0693L20.8262 6.59662H6.53706V16.7228H20.1215V21.9076H6.53706V37.0238H0Z" fill="white"/>
<path d="M40.5541 37.389C38.7234 37.389 37.2005 37.178 35.9854 36.7561C34.7866 36.3179 33.8388 35.6283 33.1422 34.687C32.4455 33.7458 31.9595 32.6261 31.6841 31.3279C31.4087 30.0296 31.271 28.415 31.271 26.4839V0.41381L37.6379 0V26.3621C37.6379 28.7639 37.9214 30.3948 38.4885 31.2548C39.0555 32.0987 40.1572 32.5206 41.7934 32.5206C42.6035 32.5206 43.6322 32.4314 44.8797 32.2529L45.0498 36.8048C45.0336 36.8048 44.8311 36.8453 44.4423 36.9265C44.0697 37.0076 43.7051 37.0725 43.3487 37.1212C43.0085 37.1861 42.5711 37.2429 42.0365 37.2916C41.5018 37.3565 41.0077 37.389 40.5541 37.389Z" fill="white"/>
<path d="M64.6804 32.691C66.8352 32.691 68.4552 31.904 69.5407 30.3299C70.6262 28.7558 71.1689 26.5001 71.1689 23.5628C71.1689 20.5931 70.6262 18.3294 69.5407 16.7715C68.4552 15.2136 66.819 14.4347 64.6318 14.4347C62.4771 14.4347 60.8489 15.2217 59.7473 16.7958C58.6618 18.3537 58.1191 20.6175 58.1191 23.5872C58.1191 26.5082 58.6699 28.7558 59.7716 30.3299C60.8732 31.904 62.5095 32.691 64.6804 32.691ZM64.5103 37.535C60.5573 37.535 57.4467 36.253 55.1786 33.689C52.9105 31.125 51.7764 27.7496 51.7764 23.5628C51.7764 19.2462 52.9105 15.8465 55.1786 13.3636C57.4467 10.8645 60.6464 9.615 64.7776 9.615C68.7631 9.615 71.8817 10.8889 74.1337 13.4367C76.4018 15.9682 77.5358 19.3436 77.5358 23.5628C77.5358 27.8308 76.3937 31.2305 74.1094 33.762C71.825 36.2774 68.6254 37.535 64.5103 37.535Z" fill="white"/>
<path d="M93.0595 49L92.695 43.8395H95.9271C99.6695 43.8395 102.286 43.3365 103.776 42.3304C105.267 41.3405 106.012 39.5148 106.012 36.8535C106.012 35.7662 105.964 34.5897 105.866 33.3239C105.445 33.9081 105.04 34.3949 104.651 34.7844C104.279 35.1576 103.801 35.5309 103.217 35.9041C102.65 36.2774 101.962 36.5614 101.152 36.7561C100.358 36.9346 99.4508 37.0238 98.4301 37.0238C94.8983 37.0238 91.9903 35.75 89.706 33.2022C87.4378 30.6544 86.3038 27.3683 86.3038 23.3438C86.3038 21.2017 86.6197 19.2543 87.2515 17.5017C87.8834 15.7329 88.742 14.2805 89.8275 13.1446C90.9129 12.0086 92.1604 11.1404 93.5699 10.54C94.9955 9.92333 96.5103 9.615 98.1142 9.615C101.695 9.615 104.36 10.9213 106.109 13.534L106.547 10.2722H112.233V35.1252C112.233 36.4559 112.168 37.6486 112.039 38.7034C111.909 39.7745 111.682 40.7968 111.358 41.7705C111.034 42.7604 110.605 43.6205 110.07 44.3507C109.552 45.081 108.896 45.7463 108.102 46.3467C107.308 46.9472 106.369 47.434 105.283 47.8073C104.214 48.1967 102.966 48.4888 101.541 48.6836C100.115 48.8945 98.5111 49 96.729 49H93.0595ZM99.4508 32.5693C103.841 32.5693 106.061 29.6239 106.109 23.7332V22.8082C106.077 20.1631 105.526 18.1184 104.457 16.6741C103.388 15.2298 101.824 14.4996 99.7667 14.4834C97.4338 14.4834 95.6679 15.2866 94.469 16.8932C93.2701 18.4835 92.6707 20.6337 92.6707 23.3438C92.6707 25.9564 93.2701 28.1472 94.469 29.916C95.6841 31.6849 97.3447 32.5693 99.4508 32.5693Z" fill="white"/>
<path d="M135.145 32.691C137.299 32.691 138.919 31.904 140.005 30.3299C141.09 28.7558 141.633 26.5001 141.633 23.5628C141.633 20.5931 141.09 18.3294 140.005 16.7715C138.919 15.2136 137.283 14.4347 135.096 14.4347C132.941 14.4347 131.313 15.2217 130.211 16.7958C129.126 18.3537 128.583 20.6175 128.583 23.5872C128.583 26.5082 129.134 28.7558 130.236 30.3299C131.337 31.904 132.974 32.691 135.145 32.691ZM134.974 37.535C131.021 37.535 127.911 36.253 125.643 33.689C123.375 31.125 122.241 27.7496 122.241 23.5628C122.241 19.2462 123.375 15.8465 125.643 13.3636C127.911 10.8645 131.111 9.615 135.242 9.615C139.227 9.615 142.346 10.8889 144.598 13.4367C146.866 15.9682 148 19.3436 148 23.5628C148 27.8308 146.858 31.2305 144.574 33.762C142.289 36.2774 139.09 37.535 134.974 37.535Z" fill="white"/>
<path d="M0.670449 66.8551C0.478892 66.8551 0.319262 66.7917 0.191557 66.6648C0.0638524 66.538 0 66.3795 0 66.1893V53.6658C0 53.4756 0.0638524 53.317 0.191557 53.1902C0.319262 53.0634 0.478892 53 0.670449 53C0.862006 53 1.02164 53.0634 1.14934 53.1902C1.27705 53.317 1.3409 53.4756 1.3409 53.6658V59.1719H10.1844V53.6658C10.1844 53.4756 10.2483 53.317 10.376 53.1902C10.5037 53.0634 10.6633 53 10.8549 53C11.0465 53 11.2061 53.0634 11.3338 53.1902C11.4615 53.317 11.5253 53.4756 11.5253 53.6658V66.1893C11.5253 66.3795 11.4615 66.538 11.3338 66.6648C11.2061 66.7917 11.0465 66.8551 10.8549 66.8551C10.6633 66.8551 10.5037 66.7917 10.376 66.6648C10.2483 66.538 10.1844 66.3795 10.1844 66.1893V60.5035H1.3409V66.1893C1.3409 66.3795 1.27705 66.538 1.14934 66.6648C1.02164 66.7917 0.862006 66.8551 0.670449 66.8551Z" fill="white"/>
<path d="M48.6736 66.8551C48.2266 66.8551 48.0031 66.6331 48.0031 66.1893V53.6658C48.0031 53.2219 48.2266 53 48.6736 53H56.5381C56.985 53 57.2085 53.2219 57.2085 53.6658C57.2085 54.1097 56.985 54.3316 56.5381 54.3316H49.344V59.1825H54.0265C54.4735 59.1825 54.697 59.4044 54.697 59.8483C54.697 60.2921 54.4735 60.5141 54.0265 60.5141H49.344V65.5235H56.5381C56.985 65.5235 57.2085 65.7454 57.2085 66.1893C57.2085 66.6331 56.985 66.8551 56.5381 66.8551H48.6736Z" fill="white"/>
<path d="M101.877 66.8868C101.7 66.9925 101.53 67.0242 101.367 66.9819C101.21 66.9467 101.076 66.8445 100.962 66.6754L97.5354 61.1799H93.9384V66.1893C93.9384 66.6331 93.7149 66.8551 93.2679 66.8551C92.821 66.8551 92.5975 66.6331 92.5975 66.1893V53.6658C92.5975 53.2219 92.821 53 93.2679 53H98.2484C99.49 53 100.434 53.3206 101.079 53.9617C101.725 54.6029 102.048 55.5399 102.048 56.7729V57.407C102.048 58.485 101.796 59.3375 101.292 59.9645C100.795 60.5916 100.061 60.9756 99.0891 61.1165L102.111 65.9779C102.331 66.3513 102.253 66.6543 101.877 66.8868ZM93.9384 59.8483H98.2484C99.1211 59.8483 99.749 59.658 100.132 59.2776C100.515 58.8901 100.707 58.2665 100.707 57.407V56.7729C100.707 55.9133 100.515 55.2933 100.132 54.9129C99.749 54.5254 99.1211 54.3316 98.2484 54.3316H93.9384V59.8483Z" fill="white"/>
<path d="M138.465 66.8551C138.018 66.8551 137.795 66.6331 137.795 66.1893V53.6658C137.795 53.2219 138.018 53 138.465 53H146.33C146.777 53 147 53.2219 147 53.6658C147 54.1097 146.777 54.3316 146.33 54.3316H139.136V59.1825H143.818C144.265 59.1825 144.488 59.4044 144.488 59.8483C144.488 60.2921 144.265 60.5141 143.818 60.5141H139.136V65.5235H146.33C146.777 65.5235 147 65.7454 147 66.1893C147 66.6331 146.777 66.8551 146.33 66.8551H138.465Z" fill="white"/>
</svg>
