<svg width="20" height="19" viewBox="0 0 20 19" fill="none" xmlns="http://www.w3.org/2000/svg">
<path d="M6 1H3C2.46957 1 1.96086 1.19228 1.58579 1.53454C1.21071 1.8768 1 2.341 1 2.82503V4.65006M19 4.65006V2.82503C19 2.341 18.7893 1.8768 18.4142 1.53454C18.0391 1.19228 17.5304 1 17 1H14M14 17.4253H17C17.5304 17.4253 18.0391 17.233 18.4142 16.8907C18.7893 16.5485 19 16.0843 19 15.6002V13.7752M1 13.7752V15.6002C1 16.0843 1.21071 16.5485 1.58579 16.8907C1.96086 17.233 2.46957 17.4253 3 17.4253H6" stroke="black" stroke-width="2" stroke-linecap="round" stroke-linejoin="round"/>
<path d="M1 8.81171H19" stroke="black" stroke-width="2" stroke-linecap="round"/>
</svg>
