<svg width="23" height="20" viewBox="0 0 23 20" fill="none" xmlns="http://www.w3.org/2000/svg">
<path d="M20.3137 2.39393C19.796 1.87599 19.1813 1.46512 18.5048 1.1848C17.8283 0.904476 17.1031 0.760194 16.3708 0.760194C15.6385 0.760194 14.9134 0.904476 14.2368 1.1848C13.5603 1.46512 12.9456 1.87599 12.4279 2.39393L11.3535 3.46833L10.2791 2.39393C9.23341 1.34821 7.81512 0.760736 6.33626 0.760736C4.85739 0.760736 3.4391 1.34821 2.39338 2.39393C1.34767 3.43964 0.760194 4.85793 0.760194 6.3368C0.760194 7.81566 1.34767 9.23396 2.39338 10.2797L3.46779 11.3541L11.3535 19.2398L19.2393 11.3541L20.3137 10.2797C20.8316 9.76197 21.2425 9.1473 21.5228 8.47077C21.8031 7.79424 21.9474 7.06911 21.9474 6.3368C21.9474 5.60449 21.8031 4.87936 21.5228 4.20283C21.2425 3.5263 20.8316 2.91162 20.3137 2.39393V2.39393Z" stroke="#4B4B4B" stroke-width="1.5" stroke-linecap="round" stroke-linejoin="round"/>
</svg>
