<svg width="109" height="1" viewBox="0 0 109 1" fill="none" xmlns="http://www.w3.org/2000/svg">
<path d="M0.439924 0.835856C0.313813 0.835856 0.208231 0.796263 0.123179 0.717076C0.0410596 0.63789 0 0.536707 0 0.413529C0 0.29035 0.0410596 0.190634 0.123179 0.11438C0.208231 0.0381268 0.313813 0 0.439924 0C0.563103 0 0.667218 0.0381268 0.75227 0.11438C0.840255 0.190634 0.884247 0.29035 0.884247 0.413529C0.884247 0.536707 0.840255 0.63789 0.75227 0.717076C0.667218 0.796263 0.563103 0.835856 0.439924 0.835856Z" fill="black"/>
<path d="M65.5096 0.835856C65.3835 0.835856 65.2779 0.796263 65.1928 0.717076C65.1107 0.63789 65.0697 0.536707 65.0697 0.413529C65.0697 0.29035 65.1107 0.190634 65.1928 0.11438C65.2779 0.0381268 65.3835 0 65.5096 0C65.6328 0 65.7369 0.0381268 65.8219 0.11438C65.9099 0.190634 65.9539 0.29035 65.9539 0.413529C65.9539 0.536707 65.9099 0.63789 65.8219 0.717076C65.7369 0.796263 65.6328 0.835856 65.5096 0.835856Z" fill="black"/>
<path d="M108.556 0.835856C108.43 0.835856 108.324 0.796263 108.239 0.717076C108.157 0.63789 108.116 0.536707 108.116 0.413529C108.116 0.29035 108.157 0.190634 108.239 0.11438C108.324 0.0381268 108.43 0 108.556 0C108.679 0 108.783 0.0381268 108.868 0.11438C108.956 0.190634 109 0.29035 109 0.413529C109 0.536707 108.956 0.63789 108.868 0.717076C108.783 0.796263 108.679 0.835856 108.556 0.835856Z" fill="black"/>
</svg>
