<svg width="2" height="7" viewBox="0 0 2 7" fill="none" xmlns="http://www.w3.org/2000/svg">
<path d="M0.288443 5.35626L0.0281408 0H1.3578L1.11156 5.35626H0.288443ZM1.18895 6.87395C1.05294 6.958 0.886436 7.00003 0.68945 7.00003C0.492465 7.00003 0.32831 6.958 0.196986 6.87395C0.0656619 6.78989 0 6.68248 0 6.55173C0 6.42098 0.0656619 6.31513 0.196986 6.23418C0.32831 6.15324 0.492465 6.11277 0.68945 6.11277C0.886436 6.11277 1.05294 6.15324 1.18895 6.23418C1.32965 6.31513 1.40001 6.42098 1.40001 6.55173C1.40001 6.68248 1.32965 6.78989 1.18895 6.87395Z" fill="white"/>
</svg>
